<?xml version="1.0"?>
<svg xmlns="http://www.w3.org/2000/svg" xmlns:xlink="http://www.w3.org/1999/xlink" version="1.1" id="Capa_1" x="0px" y="0px" viewBox="0 0 512 512" style="enable-background:new 0 0 512 512;" xml:space="preserve" width="512px" height="512px" class=""><g><path style="fill:#EFFDF5" d="M442.52,98.619H66.742c-4.143,0-7.5,3.358-7.5,7.5v137.028v19.362V504.5c0,4.142,3.357,7.5,7.5,7.5  H442.52c4.143,0,7.5-3.358,7.5-7.5V106.119C450.02,101.977,446.662,98.619,442.52,98.619z" data-original="#50D399" class="" data-old_color="#F0FDF6"/><g>
	<path style="fill:#8BA99A" d="M442.52,98.619h-31.41c3.803,0,6.885,3.358,6.885,7.5V504.5c0,4.142-3.082,7.5-6.885,7.5h31.409   c4.143,0,7.5-3.358,7.5-7.5V106.119C450.02,101.977,446.662,98.619,442.52,98.619z" data-original="#32A873" class="" data-old_color="#8AA99A"/>
	<path style="fill:#8BA99A" d="M442.519,188.768h-60.524c4.395-12.292,6.795-25.533,6.795-39.335   c0-15.304-2.947-29.919-8.298-43.313H163.434c-5.351,13.395-8.298,28.009-8.298,43.313c0,13.803,2.401,27.043,6.796,39.335h-95.19   v41.479c0,4.421,3.584,8.005,8.005,8.005h121.331c20.415,17.459,46.917,28.008,75.886,28.008c28.968,0,55.47-10.548,75.885-28.008   h94.67L442.519,188.768L442.519,188.768z" data-original="#32A873" class="" data-old_color="#8AA99A"/>
</g><path style="fill:#FFF3B2" d="M238.646,290.799H112.514c-4.143,0-7.5,3.358-7.5,7.5V504.5c0,4.142,3.357,7.5,7.5,7.5h126.133  c4.143,0,7.5-3.358,7.5-7.5V298.299C246.146,294.157,242.789,290.799,238.646,290.799z" data-original="#E7C474" class="" data-old_color="#FFF4B3"/><g>
	<path style="fill:#2B2F52" d="M472.625,512H43.016c-4.143,0-7.5-3.358-7.5-7.5s3.357-7.5,7.5-7.5h429.609   c4.143,0,7.5,3.358,7.5,7.5S476.768,512,472.625,512z" data-original="#2B2F52" class="active-path"/>
	<path style="fill:#2B2F52" d="M138.07,428.494c-4.143,0-7.5-3.358-7.5-7.5v-23.776c0-4.142,3.357-7.5,7.5-7.5s7.5,3.358,7.5,7.5   v23.776C145.57,425.136,142.213,428.494,138.07,428.494z" data-original="#2B2F52" class="active-path"/>
</g><path style="fill:#E0F4FF" d="M401.716,290.799H279.451c-4.143,0-7.5,3.358-7.5,7.5v113.997c0,4.142,3.357,7.5,7.5,7.5h122.265  c4.143,0,7.5-3.358,7.5-7.5V298.299C409.216,294.157,405.858,290.799,401.716,290.799z" data-original="#D0F0FE" class="" data-old_color="#DFF3FD"/><path style="fill:#FFF3B2" d="M469.886,156.163H114.264H93H39.375c-4.143,0-7.5,3.358-7.5,7.5v49.485c0,4.142,3.357,7.5,7.5,7.5  h83.791h208.112h138.607c4.143,0,7.5-3.358,7.5-7.5v-49.485C477.386,159.52,474.028,156.163,469.886,156.163z" data-original="#E7C474" class="" data-old_color="#FFF4B3"/><path style="fill:#D78B53" d="M469.886,156.163h-30.857c3.851,0,6.972,3.358,6.972,7.5v49.485c0,4.142-3.121,7.5-6.972,7.5h30.857  c4.143,0,7.5-3.358,7.5-7.5v-49.485C477.386,159.52,474.028,156.163,469.886,156.163z" data-original="#D99A4A" class="" data-old_color="#D78A51"/><path style="fill:#E0F4FF" d="M257.82,0c-68.555,0-124.327,55.773-124.327,124.328c0,68.554,55.772,124.327,124.327,124.327  s124.327-55.773,124.327-124.327C382.147,55.773,326.375,0,257.82,0z" data-original="#D0F0FE" class="" data-old_color="#DFF3FD"/><path style="fill:#E30313" d="M264.954,77.496l39.7,39.7c14.9,14.9,14.9,39.067,0,53.966c-14.9,14.9-39.067,14.9-53.966,0  l-39.699-39.699c-14.9-14.9-14.9-39.067,0-53.967c7.456-7.456,17.22-11.165,26.983-11.178  C247.734,66.331,257.497,70.04,264.954,77.496z" data-original="#E36F91" class="" data-old_color="#E36F91"/><path style="fill:#FFFFFF" d="M284.803,97.346l19.85,19.85c14.9,14.9,14.9,39.067,0,53.966c-14.9,14.9-39.067,14.9-53.966,0  l-19.85-19.85L284.803,97.346z" data-original="#FFFFFF" class=""/></g> </svg>
