<?xml version="1.0"?>
<svg xmlns="http://www.w3.org/2000/svg" xmlns:xlink="http://www.w3.org/1999/xlink" version="1.1" id="Capa_1" x="0px" y="0px" viewBox="0 0 18.424 18.424" style="enable-background:new 0 0 18.424 18.424;" xml:space="preserve" width="512px" height="512px" class=""><g><g>
	<path d="M18.238,10.928c-0.107-0.092-0.269-0.132-0.407-0.108c-0.206,0-0.286-0.092-0.323-0.163   c-0.114-1.303-0.714-2.555-1.706-3.569c0.343-0.702,0.307-1.68,0.293-1.903c-0.009-0.144-0.081-0.275-0.197-0.36   c-0.116-0.085-0.264-0.112-0.402-0.077l-2.958,0.761c-0.289-0.094-0.778-0.164-1.609-0.272c-0.349-0.075-0.721-0.113-1.105-0.113   c-2.093,0-4.019,1.111-4.111,1.166C4.36,7.134,3.438,8.363,3.049,9.783c-0.133,0.078-0.271,0.133-0.41,0.159   C2.687,9.626,2.649,9.29,2.531,9.03C2.15,8.192,1.211,8.944,1.256,9.62c0.021,0.311,0.267,0.583,0.552,0.74   c-0.123,0.022-0.266,0.017-0.423-0.022c-0.918-0.226-0.949-1.264-0.857-2.027C0.572,7.945,0.059,8.18,0.027,8.446   c-0.146,1.207,0.274,2.686,1.789,2.453c0.275-0.043,0.471-0.195,0.61-0.396c0.176-0.007,0.341-0.044,0.497-0.109   c-0.051,0.307-0.085,0.617-0.085,0.938c0,1.842,0.157,3.469,2.089,4.717c0.087,0.174,0.164,0.773,0.164,1.303   c0,0.25,0.193,0.459,0.444,0.479l1.696,0.131c0.012,0.002,0.024,0.002,0.037,0.002c0.003,0,0.006,0,0.01,0   c0.266,0,0.48-0.215,0.48-0.48c0-0.064-0.013-0.125-0.035-0.182c-0.022-0.135-0.038-0.279-0.042-0.398   c0.68,0.148,1.358,0.162,2.05,0.162c0.136,0,0.224-0.002,0.304-0.008c0.04,0.168,0.087,0.385,0.122,0.572   c0.043,0.227,0.241,0.391,0.473,0.391c0.001,0,0.002,0,0.003,0l1.166-0.008c0.26-0.002,0.472-0.209,0.478-0.469   c0.008-0.346,0.036-0.717,0.068-0.943c0.049-0.004,0.101-0.006,0.153-0.01c0.097-0.008,0.178-0.014,0.246-0.02   c0.057,0.145,0.124,0.346,0.177,0.537c0.062,0.225,0.275,0.377,0.51,0.35l1.799-0.17c0.141-0.014,0.268-0.088,0.349-0.203   c0.08-0.115,0.106-0.26,0.072-0.396c-0.08-0.311-0.146-0.656-0.163-0.844c0.29-0.258,0.418-0.531,0.533-0.777   c0.076-0.164,0.143-0.305,0.234-0.424c0.523-0.576,1.44-0.607,1.663-0.607c0.001,0,0.003,0,0.004,0   c0.134,0.008,0.26-0.043,0.354-0.133c0.095-0.092,0.148-0.217,0.148-0.348v-2.262C18.426,11.152,18.346,11.019,18.238,10.928z    M1.79,9.493c-0.102-0.19,0.021-0.381,0.197-0.221c0.122,0.11,0.156,0.316,0.18,0.468c0.008,0.055,0.008,0.103,0.008,0.149   C2.03,9.82,1.898,9.694,1.79,9.493z M15.522,14.021c-0.183,0.232-0.283,0.447-0.372,0.637c-0.109,0.234-0.182,0.389-0.391,0.539   c-0.021,0.016-0.042,0.033-0.061,0.051c-0.117,0.117-0.27,0.271-0.104,1.133l-0.863,0.082c-0.235-0.707-0.428-0.818-0.62-0.871   c-0.081-0.021-0.167-0.021-0.248,0.002c-0.079,0.012-0.259,0.023-0.434,0.035c-0.392,0.029-0.502,0.039-0.592,0.068   c-0.053,0.018-0.103,0.043-0.146,0.076c-0.12,0.092-0.296,0.227-0.357,1.279l-0.309,0.002c-0.144-0.684-0.279-0.99-0.707-0.99   c-0.001,0-0.003,0-0.004,0l-0.16,0.016c-0.145,0.016-0.216,0.023-0.422,0.023c-0.738,0-1.458-0.018-2.134-0.213   c-0.02-0.006-0.04-0.01-0.061-0.014c-0.024-0.004-0.084-0.01-0.108-0.01c-0.2,0-0.381,0.088-0.508,0.242   c-0.17,0.209-0.213,0.535-0.202,0.848l-0.677-0.053c-0.047-0.908-0.246-1.467-0.593-1.664c-1.402-0.904-1.65-1.984-1.65-3.908   c0-1.727,0.882-3.267,2.409-4.219c0.017-0.011,1.777-1.027,3.613-1.027c0.316,0,0.62,0.031,0.94,0.099   c0.838,0.11,1.21,0.179,1.372,0.215c0.104,0.086,0.242,0.13,0.385,0.104c0.011-0.001,0.028-0.005,0.042-0.009   c0.002,0,0.004-0.001,0.006-0.001s0.004-0.001,0.006-0.001l2.551-0.655C15.089,6.238,15,6.652,14.835,6.82   c-0.091,0.094-0.141,0.221-0.137,0.351c0.003,0.131,0.061,0.255,0.157,0.343c1.009,0.913,1.611,2.083,1.697,3.294   c0.004,0.046,0.014,0.092,0.03,0.136c0.154,0.408,0.472,0.689,0.88,0.795v1.358h0.002C16.936,13.16,16.116,13.367,15.522,14.021z    M5.469,2.648c0-1.24,1.005-2.245,2.245-2.245s2.245,1.005,2.245,2.245S8.954,4.893,7.714,4.893S5.469,3.888,5.469,2.648z    M11.493,8.703c-0.09,0.25-0.366,0.379-0.616,0.289C8.359,8.081,7.048,9.516,6.992,9.578C6.898,9.685,6.764,9.74,6.631,9.74   c-0.112,0-0.225-0.039-0.316-0.119C6.117,9.447,6.094,9.146,6.267,8.946c0.071-0.082,1.776-2.002,4.938-0.86   C11.455,8.176,11.585,8.452,11.493,8.703z M15.493,9.944c0,0.395-0.215,0.716-0.481,0.716s-0.481-0.321-0.481-0.716   c0-0.395,0.215-0.716,0.481-0.716C15.278,9.228,15.493,9.549,15.493,9.944z" data-original="#030104" class="active-path" data-old_color="#FCF9F9" fill="#FDFBFB"/>
</g></g> </svg>
